<?xml version="1.0" encoding="UTF-8"?>
<svg id="Camada_2" data-name="Camada 2" xmlns="http://www.w3.org/2000/svg" viewBox="0 0 790.09 211.3">
  <defs>
    <style>
      .cls-1 {
        fill: #0059c5;
      }
    </style>
  </defs>
  <g id="Camada_1-2" data-name="Camada 1">
    <g>
      <path class="cls-1" d="M42.86,200.74L0,51.01h41.05l35.32,131.61h5.43L117.12,51.01h41.05l-42.86,149.72H42.86Z"/>
      <path class="cls-1" d="M247.02,204.96c-14.89,0-28.07-3.17-39.54-9.51-11.47-6.34-20.43-15.44-26.87-27.32-6.44-11.87-9.66-26.16-9.66-42.87v-1.81c0-15.29,3.42-28.68,10.26-40.15,6.84-11.47,15.95-20.42,27.32-26.86,11.37-6.44,24-9.66,37.88-9.66,12.88,0,23.95,2.22,33.2,6.64,9.25,4.43,16.85,10.16,22.79,17.2,5.93,7.05,10.36,14.74,13.28,23.09,2.92,8.35,4.38,16.45,4.38,24.3v20.23h-109.88c.4,8.86,4.12,16.15,11.17,21.88,7.04,5.74,15.4,8.6,25.05,8.6s16.75-1.71,21.88-5.13c5.13-3.42,8.7-7.34,10.72-11.77l32.6,18.11c-2.22,5.03-5.89,10.26-11.02,15.7-5.13,5.43-12.03,10.01-20.68,13.74-8.65,3.72-19.62,5.58-32.9,5.58ZM210.8,105.65h70.64c-1.21-7.04-4.98-12.88-11.32-17.51-6.34-4.63-14.34-6.94-24-6.94s-17.26,2.47-23.39,7.4c-6.14,4.93-10.11,10.62-11.92,17.06Z"/>
      <path class="cls-1" d="M566.45,204.96c-14.89,0-28.07-3.17-39.54-9.51-11.47-6.34-20.43-15.44-26.87-27.32-6.44-11.87-9.66-26.16-9.66-42.87v-1.81c0-15.29,3.42-28.68,10.26-40.15,6.84-11.47,15.95-20.42,27.32-26.86,11.37-6.44,24-9.66,37.88-9.66,12.88,0,23.95,2.22,33.2,6.64,9.25,4.43,16.85,10.16,22.79,17.2,5.93,7.05,10.36,14.74,13.28,23.09,2.92,8.35,4.38,16.45,4.38,24.3v20.23h-109.88c.4,8.86,4.12,16.15,11.17,21.88,7.04,5.74,15.4,8.6,25.05,8.6s16.75-1.71,21.88-5.13c5.13-3.42,8.7-7.34,10.72-11.77l32.6,18.11c-2.22,5.03-5.89,10.26-11.02,15.7-5.13,5.43-12.03,10.01-20.68,13.74-8.65,3.72-19.62,5.58-32.9,5.58ZM530.23,105.65h70.64c-1.21-7.04-4.98-12.88-11.32-17.51-6.34-4.63-14.34-6.94-24-6.94s-17.26,2.47-23.39,7.4c-6.14,4.93-10.11,10.62-11.92,17.06Z"/>
      <path class="cls-1" d="M650.63,211.3v-36.22h52.52V36.22h-50.71V0h88.75v175.08h48.9v36.22h-139.46Z"/>
      <polyline class="cls-1" points="404.69 105.95 376.62 200.74 332.85 200.74 371.19 126.78 371.19 121.35 334.66 51.01 376.92 51.01 404.69 105.95"/>
      <polyline class="cls-1" points="407.41 105.95 435.18 51.01 477.44 51.01 440.92 121.35 440.92 126.78 479.25 200.74 435.48 200.74 407.41 105.95"/>
    </g>
  </g>
</svg>